<svg width="45" height="45" viewBox="0 0 45 45" fill="none" xmlns="http://www.w3.org/2000/svg">
<g filter="url(#filter0_d_1_1053)">
<path d="M22.617 0.000379533C12.3998 -0.0643777 4.06425 8.1659 4.00038 18.3825C3.93562 28.5991 12.1658 36.9347 22.383 36.9993C32.6002 37.064 40.935 28.8338 40.9996 18.6164C41.0644 8.39914 32.8335 0.0649688 22.617 0.000379533Z" fill="#71563A"/>
<path d="M22.617 0.000379533C12.3998 -0.0643777 4.06425 8.1659 4.00038 18.3825C3.93562 28.5991 12.1658 36.9347 22.383 36.9993C32.6002 37.064 40.935 28.8338 40.9996 18.6164C41.0644 8.39914 32.8335 0.0649688 22.617 0.000379533Z" fill="#71563A"/>
<path d="M23.7278 9.17758C23.7398 8.33892 23.4149 7.53061 22.8261 6.93343C22.2374 6.33625 21.4338 6 20.5951 6C19.7563 6 18.9527 6.33622 18.3639 6.93343C17.7751 7.53064 17.4504 8.33892 17.4623 9.17758C17.4504 10.0162 17.7751 10.8246 18.3639 11.4217C18.9527 12.0189 19.7563 12.3552 20.5951 12.3552C21.4338 12.3552 22.2373 12.0189 22.8261 11.4217C23.415 10.8245 23.7398 10.0162 23.7278 9.17758Z" fill="white"/>
<path d="M28.7841 9.00595H27.8799V10.5621H28.7841V9.00595Z" fill="white"/>
<path d="M32.8444 8.63095H29.2276V10.937H32.8444C32.9446 10.937 33.0407 10.8974 33.1115 10.8265C33.1824 10.7557 33.2222 10.6594 33.2222 10.5593V9.00881C33.2222 8.90854 33.1824 8.81248 33.1115 8.74162C33.0407 8.67076 32.9444 8.63095 32.8444 8.63095Z" fill="white"/>
<path d="M27.1428 12.0213C27.3186 11.9853 27.445 11.8306 27.445 11.6509V7.91704C27.445 7.81678 27.4052 7.72072 27.3343 7.64986C27.2635 7.579 27.1672 7.53918 27.0672 7.53918H25.3517C25.2517 7.53918 25.1554 7.579 25.0846 7.64986C25.0135 7.72072 24.9737 7.81678 24.9737 7.91704V11.0937C25.3779 10.8745 25.86 10.8521 26.2826 11.0329C26.7052 11.2137 27.0221 11.5776 27.1428 12.0213Z" fill="white"/>
<path d="M19.9785 20.1381L21.3784 19.1557V19.1556C21.9429 18.7594 22.6623 18.6554 23.3161 18.875C23.9699 19.0947 24.4803 19.6122 24.6913 20.2689L27.1553 27.9462C27.3157 28.4778 27.1838 29.0546 26.8085 29.4639C26.433 29.8729 25.8696 30.0537 25.3263 29.9398C24.7828 29.8257 24.3399 29.4334 24.1607 28.9078L22.2172 22.8528C22.1902 22.768 22.1242 22.7012 22.0399 22.6729C21.9555 22.6446 21.8625 22.6583 21.7898 22.7096L19.1745 24.545V24.5448C19.1093 24.5909 19.0668 24.6624 19.0578 24.7417C19.0487 24.821 19.0739 24.9004 19.1272 24.96L21.2872 27.3798V27.3796C21.5582 27.6832 21.701 28.0798 21.6857 28.4864C21.6704 28.8931 21.4981 29.2779 21.205 29.5601C20.9119 29.8424 20.5209 30 20.1142 30H12.5719C12.01 30 11.4908 29.7003 11.2099 29.2136C10.9288 28.7271 10.9288 28.1275 11.2099 27.6408C11.4908 27.1543 12.01 26.8544 12.5719 26.8544H15.7108C15.8679 26.854 16.0101 26.7614 16.0741 26.6179C16.1382 26.4745 16.1119 26.3069 16.0074 26.1896L14.6654 24.6866C14.5126 24.5151 14.3879 24.3203 14.2962 24.1097C13.4811 22.243 13.3065 20.1592 13.7994 18.1828C14.2925 16.2065 15.4255 14.4489 17.0219 13.1839C17.3572 12.9185 17.7756 12.7803 18.203 12.7936C18.6305 12.8071 19.0395 12.9711 19.3574 13.2571C19.6755 13.543 19.8823 13.9322 19.9409 14.3557L18.9873 14.0454C18.4776 13.8841 17.9206 14.0056 17.5243 14.3642C17.1278 14.7229 16.9516 15.2652 17.0611 15.7884C17.1707 16.3116 17.5499 16.7373 18.057 16.9068L19.7084 17.4439C19.5971 18.1865 19.4507 18.9234 19.2695 19.6521C19.2231 19.8382 19.2971 20.0334 19.4552 20.1417C19.6134 20.25 19.8221 20.2488 19.9788 20.1383L19.9785 20.1381Z" fill="white"/>
<path d="M24.826 17.1403L26.6664 12.8344L26.6666 12.8346C26.8119 12.4853 26.7612 12.0851 26.5333 11.7831C26.3053 11.4812 25.9342 11.3228 25.5585 11.3668C25.1827 11.411 24.8585 11.6512 24.7069 11.9978L23.2112 15.4995C23.1299 15.6893 22.9175 15.7859 22.721 15.7222L18.8513 14.4631C18.4895 14.3453 18.0923 14.4293 17.8094 14.6837C17.5263 14.9381 17.4005 15.324 17.4792 15.6964C17.5581 16.0686 17.8295 16.3707 18.1912 16.4886L22.8941 18.0182L22.894 18.018C23.2676 18.1393 23.6729 18.1166 24.0303 17.9541C24.3879 17.7917 24.6717 17.5014 24.826 17.1403Z" fill="white"/>
</g>
<defs>
<filter id="filter0_d_1_1053" x="0" y="0" width="45" height="44.9997" filterUnits="userSpaceOnUse" color-interpolation-filters="sRGB">
<feFlood flood-opacity="0" result="BackgroundImageFix"/>
<feColorMatrix in="SourceAlpha" type="matrix" values="0 0 0 0 0 0 0 0 0 0 0 0 0 0 0 0 0 0 127 0" result="hardAlpha"/>
<feOffset dy="4"/>
<feGaussianBlur stdDeviation="2"/>
<feComposite in2="hardAlpha" operator="out"/>
<feColorMatrix type="matrix" values="0 0 0 0 0 0 0 0 0 0 0 0 0 0 0 0 0 0 0.25 0"/>
<feBlend mode="normal" in2="BackgroundImageFix" result="effect1_dropShadow_1_1053"/>
<feBlend mode="normal" in="SourceGraphic" in2="effect1_dropShadow_1_1053" result="shape"/>
</filter>
</defs>
</svg>
