<svg width="390" height="844" viewBox="0 0 390 844" fill="none" xmlns="http://www.w3.org/2000/svg">
<g clip-path="url(#clip0_46_830)">
<rect width="390" height="844" fill="#131313"/>
<rect width="390" height="844" fill="url(#paint0_linear_46_830)"/>
<path d="M-18.3673 646.284C-19.2838 648.178 -20.3066 649.697 -21.17 651.706C-22.5993 655.119 -23.9728 658.801 -25.3489 662.541C-25.859 663.897 -30.6382 672.462 -32.5777 677.827C-33.4411 678.154 -35.1174 678.799 -36.8097 679.289C-37.5323 679.289 -38.239 679.289 -38.9616 679.615L-38.9643 679.607C-39.1662 679.501 -39.3761 679.501 -39.5806 679.607C-42.912 685.029 -46.4557 679.338 -49.8059 681.338C-53.4907 683.502 -57.1592 680.579 -60.1373 681.877L-60.14 681.885C-61.022 678.366 -61.9757 675.018 -62.9958 671.858C-64.7599 666.869 -66.8055 662.264 -68.7448 657.601L-68.7421 657.609C-69.8765 655.396 -70.9604 652.955 -71.9885 650.293C-74.8444 641.246 -77.5249 631.594 -80.4183 622.596C-81.7944 618.317 -82.8518 611.76 -85.2508 612.952L-85.11 604.714C-83.4868 600.541 -81.4412 595.936 -79.6612 590.514C-77.0152 582.438 -74.6189 573.603 -71.9571 565.584H-71.9517C-69.9806 560.742 -67.9269 556.218 -65.799 552.038C-64.561 548.984 -63.2247 546.314 -61.814 544.068C-60.475 542.386 -62.7306 535.233 -63.9659 536.099C-64.7762 537.373 -65.4722 539.234 -65.9929 541.521C-69.6617 552.356 -74.6166 557.019 -78.7047 565.422C-82.23 572.738 -86.3932 576.257 -89.7773 585.207L-90.2715 455.138C-87.2403 459.278 -84.294 463.998 -81.4567 469.281C-78.7788 475.356 -76.271 482.125 -73.962 489.499C-71.6534 496.325 -69.5361 503.755 -67.3496 511.178C-65.7795 516.33 -59.3265 536.759 -59.0449 538.279C-58.8165 538.279 -55.3602 516.6 -57.2809 511.995C-60.8063 503.429 -64.5097 495.738 -68.019 486.796C-70.4525 480.729 -72.6735 473.788 -75.0723 467.337C-75.7418 465.492 -89.4258 427.556 -90.0236 427.123C-89.8483 421.432 -89.5826 416.288 -89.564 411.625C-89.564 404.252 -89.6862 396.886 -89.7234 389.513C-89.7579 382.14 -80.6243 356.998 -79.6545 354.556C-77.1865 347.942 -74.6654 341.385 -72.1068 335.155C-71.5967 333.906 -60.6804 314.024 -59.5358 311.15L-59.5385 311.141C-58.2447 308.471 -57.0121 305.515 -55.8537 302.306C-53.7736 295.26 -54.0897 290.597 -56.6826 285.665V285.673C-58.1305 282.677 -59.5146 279.402 -60.8243 275.859C-61.2653 274.773 -68.8127 249.844 -68.9698 250.17L-70.4336 246.324C-72.6386 240.633 -74.825 234.893 -77.046 229.308C-78.5098 225.625 -80.0959 222.367 -81.5065 218.472H-81.5092C-81.9741 217.059 -82.1733 215.018 -82.0378 213.05C-81.3923 209.49 -80.5581 206.289 -79.5698 203.57C-77.0434 198.018 -74.6125 192.065 -72.288 185.737C-69.9953 178.42 -62.0253 153.597 -61.0745 155.117C-59.8206 157.444 -42.7356 160.915 -37.165 160.915C-33.7432 160.915 -30.3238 159.829 -26.9213 160.318C-24.6817 160.645 -17.963 166.067 -16.9055 165.414C-14.2595 163.732 -13.7494 171.317 -12.4609 174.845C-9.12951 184.055 -6.09559 194.352 -2.90484 204.053C-1.56858 208.25 -0.155183 212.219 1.32723 215.926C2.01529 217.306 2.76448 218.376 3.54816 219.118C1.66197 225.896 -0.189744 233.318 -2.32301 239.875C-4.79102 247.518 -7.61234 254.287 -10.0993 261.554C-11.7384 266.323 -13.2368 271.581 -14.8068 276.619C-15.2478 278.032 -15.7048 279.33 -16.183 280.58H-16.1803C-17.5193 283.805 -18.7944 287.267 -20.0085 290.925C-20.4336 293.391 -20.7869 295.971 -21.0659 298.625C-21.5945 301.336 -18.3694 316.614 -16.7807 321.391C-15.1947 326.16 -10.9972 340.58 -10.0993 343.07C-8.52918 347.782 -6.94319 352.395 -5.41031 357.27C-3.87744 362.145 -2.67665 366.481 -1.33767 371.2L-1.33501 371.192C0.766359 377.863 3.08828 383.841 5.59383 389.025C5.59383 396.505 5.7001 403.764 5.80636 410.974C5.85418 414.297 5.2777 417.417 4.32396 418.993C2.52278 423.99 0.854359 429.428 -0.665186 435.25C-1.45954 437.904 -2.30436 440.402 -3.09865 443.056C-5.53211 451.401 -8.0533 459.314 -10.3274 468.205C-12.2482 475.579 -13.8528 483.703 -15.6168 491.346C-16.5678 495.412 -17.681 499.094 -18.7011 502.998C-19.7239 506.901 -20.9938 511.506 -22.0325 516.005L-22.0352 515.997C-22.7844 518.692 -23.6026 521.198 -24.4873 523.477C-26.2513 528.899 -26.4611 533.504 -25.1753 538.926H-25.1727C-24.2296 542.224 -23.1776 545.221 -22.0352 547.867C-21.6154 549.279 -21.2196 550.757 -20.853 552.309C-20.4651 553.689 -20.0454 554.995 -19.6017 556.212C-17.6969 561.307 -15.7044 566.133 -13.8714 571.44C-13.3055 573.702 -12.8459 576.201 -12.5138 578.863C-12.4129 579.883 -12.2242 580.798 -11.9665 581.517C-8.44118 585.91 -6.21759 595.659 -2.93958 601.138C-1.44125 604.551 -0.104925 608.609 1.02676 613.166C0.885959 613.713 -17.9102 645.303 -18.3673 646.284ZM-69.6434 424.852C-66.5404 434.716 -63.5066 444.793 -60.3505 454.55C-57.8107 462.405 -55.0611 469.779 -52.5055 477.586C-50.9727 482.248 -43.954 503.65 -42.7373 506.688C-41.9615 509.35 -40.8245 510.746 -39.6662 510.46C-38.5053 510.166 -37.4559 508.231 -36.8289 505.218C-34.3078 496.71 -31.4147 489.287 -28.7527 481.154C-25.7374 471.992 -22.7222 462.839 -19.8475 453.302C-18.4369 448.591 -17.345 442.948 -16.0379 437.91C-15.1904 434.603 -14.1171 431.786 -13.3573 428.316C-12.6002 424.845 -12.2123 420.624 -11.4711 417.096C-10.0259 410.05 -11.2241 393.032 -13.2352 391.627C-13.4637 391.627 -17.8737 372.12 -18.6654 369.19C-19.4597 366.266 -21.856 360.191 -22.0685 359.432C-23.3038 355.039 -24.4489 350.433 -25.5939 345.828C-26.97 340.406 -28.2744 334.666 -29.7011 329.301C-30.7424 325.398 -31.9592 321.928 -33.0856 318.466H-33.091C-33.5054 316.825 -33.9543 315.273 -34.4326 313.803C-35.3917 310.586 -36.5579 308.006 -37.8517 306.218C-39.8973 304.593 -41.2548 309.688 -42.6123 313.86C-43.9699 318.033 -45.803 323.185 -47.4793 327.57C-49.4903 332.992 -51.5174 338.406 -53.6506 342.905C-55.7839 347.404 -66.7344 379.975 -67.6328 380.841C-67.4043 384.148 -72.9221 411.297 -72.7282 411.625C-71.5354 415.643 -70.4989 420.084 -69.6434 424.852ZM-66.7344 600.662C-66.7344 599.96 -66.6467 600.662 -66.7344 601.585C-66.9097 607.006 -64.1787 613.343 -64.0379 614.102C-62.2739 622.447 -60.5125 630.899 -58.7486 639.032C-57.5504 644.454 -56.1398 649.328 -54.8168 654.481L-54.8141 654.473C-54.6175 655.812 -54.3227 657.004 -53.9507 657.935C-53.0342 658.8 -48.2735 649.32 -47.0219 647.475C-45.7706 645.629 -44.1474 643.792 -42.7713 641.571C-38.3639 634.361 -33.9538 626.996 -29.5808 619.892C-29.3523 620.268 -26.0554 614.47 -26.143 612.037C-26.414 606.615 -27.1393 601.495 -28.2418 597.184C-31.8734 584.397 -35.7174 572.091 -39.6334 560.113V560.122C-40.5128 558.317 -41.6233 557.933 -42.6115 559.093C-45.2389 562.996 -47.6724 568.034 -50.247 572.313C-50.951 573.448 -57.7417 581.58 -57.9355 582.07C-58.5359 583.483 -61.8328 589.28 -62.1489 589.762C-62.7653 590.734 -63.3125 592.04 -63.913 593.118V593.127C-64.3062 593.625 -64.686 594.245 -65.0421 594.964C-65.4459 596.27 -65.8869 598.059 -66.6626 600.655L-66.7344 600.662ZM-19.5498 236.794C-19.7623 233.274 -23.5347 220.267 -24.2759 217.172C-25.0171 214.085 -25.7929 210.346 -26.534 206.875C-27.9978 200.098 -29.4085 193.214 -30.9786 186.658C-31.773 183.351 -32.2831 179.015 -34.4003 181.236L-34.3977 181.244C-36.8152 183.057 -39.2726 184.347 -41.7489 185.09C-43.3881 186.012 -45.0272 187.254 -46.6318 188.609L-46.6344 188.617C-48.9404 191.091 -51.2969 193.116 -53.685 194.684C-55.5367 195.77 -57.3007 198.097 -57.3007 202.923C-57.3007 207.749 -58.799 214.306 -56.6472 219.18C-55.0027 224.798 -53.4539 230.677 -52.0113 236.793C-50.1411 243.244 -48.308 249.744 -46.4404 256.194C-45.8134 257.533 -45.2661 259.183 -44.8172 261.069C-44.1769 266.523 -42.4076 269.928 -40.532 269.308C-39.5385 269.741 -38.5289 268.981 -37.7107 267.193C-37.1581 263.813 -37.113 259.852 -37.5885 256.357C-38.5714 251.115 -39.8015 246.355 -41.2387 242.215C-43.3906 235.715 -45.7523 229.803 -48.0451 223.786C-48.7678 221.663 -49.5807 219.842 -50.4601 218.364C-51.4483 216.902 -50.2847 210.018 -48.696 208.5C-45.7338 205.789 -42.7717 203.078 -39.8785 200.367C-38.6086 199.118 -37.3919 197.28 -35.8935 195.378C-34.9053 199.06 -33.4601 204.049 -32.1371 209.308C-30.6042 215.375 -30.373 224.806 -27.4109 227.248L-27.4136 227.256C-27.3392 227.974 -27.2967 228.726 -27.2914 229.477C-29.7063 234.466 -32.1929 239.994 -34.8017 244.869C-35.5323 245.955 -36.0849 247.914 -36.3346 250.291C-36.5843 252.659 -36.5099 255.247 -36.1247 257.444C-32.1664 256.79 -28.3247 253.059 -24.9643 246.6C-23.1286 243.619 -21.4732 240.476 -19.5498 236.794Z" fill="black" fill-opacity="0.05"/>
<path d="M-85.0725 140.105C-86.0236 147.2 -83.9621 149.209 -82.9924 151.593C-80.8511 156.24 -78.2795 158.673 -75.6575 158.526C-73.3117 158.902 -70.9686 159.016 -68.8698 159.228C-70.9845 163.727 -73.1895 168.765 -75.5167 173.322C-78.7604 179.666 -82.1291 185.407 -85.338 191.857C-86.3714 194.666 -87.2906 197.851 -88.0716 201.338C-88.4568 183.292 -88.3984 165.172 -87.8936 147.143C-87.8936 144.595 -88.1062 142.048 -88.1221 139.5C-88.1221 132.56 -88.2815 125.57 -88.2629 118.58C-88.2629 114.571 -87.9972 110.504 -87.9972 106.495C-87.9972 93.3815 -88.1195 80.2111 -87.9972 67.0962C-87.875 53.9825 -87.4155 42.3881 -87.1684 30.0258C-86.9744 20.0558 -86.9027 10.0857 -86.7619 -0.921922C-84.6631 -1.68131 -65.8141 3.3077 -61.0378 4.98165C-59.2738 5.63489 -57.2999 4.60604 -55.4296 4.98165L-55.4349 4.98982C-53.5461 5.16946 -51.6678 5.76553 -49.8082 6.77805C-49.3221 8.18252 -49.0537 10.1504 -49.0697 12.2C-48.9475 20.1124 -48.8758 28.0246 -48.9289 35.8796C-48.9289 37.774 -53.6019 36.8512 -54.9408 35.8796V35.8877C-57.0023 35.0875 -59.0932 35.1937 -61.1467 36.2062C-61.7524 37.1207 -62.1642 38.9172 -62.2386 40.9747C-62.2386 45.4738 -61.7631 49.9158 -61.6754 54.4151C-61.7605 57.0199 -61.9624 59.5757 -62.2758 62.0089C-65.8012 53.1249 -69.5577 59.0858 -73.2424 59.0285C-74.3343 59.0285 -74.5309 60.5962 -74.6 63.691C-74.8125 72.7383 -75.2004 81.7366 -75.5697 92.4167C-78.2502 90.5713 -80.6651 88.6768 -83.1174 87.4847V87.4765C-84.111 87.746 -85.0833 88.538 -85.9893 89.8037C-85.3357 91.5511 -84.5653 92.8494 -83.7338 93.6007C-80.4555 91.543 -78.1256 97.5038 -75.5882 101.946C-73.0485 106.388 -71.2871 102.705 -70.793 93.9274H-70.7903C-70.1793 86.9868 -70.7797 79.5562 -72.379 74.3058C-72.7084 71.9134 -72.8465 69.3168 -72.7828 66.7201C-71.5873 65.7648 -70.3467 65.4545 -69.1166 65.7974C-66.8957 67.6918 -64.7969 71.2194 -62.6105 73.6037C-61.2184 75.2286 -59.5767 76.6412 -58.5725 72.3543C-57.276 67.9042 -56.9838 61.478 -57.8313 56.097C-58.5273 52.6184 -59.1437 48.9932 -59.683 45.2614C-56.5986 48.2419 -53.4053 45.2614 -50.2677 49.434C-49.0855 51.0589 -46.7423 56.3175 -45.1722 50.0301C-44.5559 47.5886 -44.609 14.3707 -45.1722 13.6684L-45.4379 11.7168L-45.4353 11.7086C-44.7073 10.0756 -43.8891 8.84256 -43.0204 8.08314C-39.6172 7.16043 -36.2139 6.89098 -32.8107 6.35206C-31.5063 6.35206 -30.2178 5.75598 -28.9134 5.42936L-30.6775 17.5141C-30.518 17.5141 -30.8369 29.4929 -30.7837 35.0209V35.0127C-26.6234 33.2653 -22.4076 33.2653 -18.2468 35.0127C-21.0336 39.618 -18.2468 53.9239 -17.8403 59.125C-17.7526 60.0966 -8.26585 67.0374 -7.15525 64.5469C-7.15525 68.0662 -8.91929 76.3622 -8.81299 79.8816C-8.70673 83.4009 -4.66862 102.156 -1.7597 99.0131C-0.596122 97.7638 6.86398 97.0044 7.4271 96.5227L7.67417 98.2048C7.23316 98.907 6.59825 124.71 6.81078 137.228H6.80812C6.30336 139.35 5.49574 140.6 4.64031 140.584C3.74237 140.045 -32.1565 60.2115 -31.7532 54.2498V54.258C-32.6511 56.3565 -33.48 58.7407 -34.2212 61.3537C-35.8444 68.4494 -81.7934 141.456 -85.0722 140.102L-85.0725 140.105Z" fill="black" fill-opacity="0.05"/>
<path d="M-79.3593 696.452L-81.0356 703.875C-77.5103 711.297 -73.9823 719.046 -70.4567 725.554L-70.454 725.562C-66.7055 732.601 -63.2946 741.207 -60.3165 751.135C-59.1981 754.255 -57.9176 756.761 -56.5255 758.558C-51.7993 765.768 -47.9923 777.526 -42.8439 783.161V783.169C-41.4093 785.145 -39.7277 784.288 -38.5774 780.997C-34.4702 772.652 -30.2543 764.74 -26.2349 755.961C-23.4667 749.837 -20.9456 742.358 -18.4056 735.58C-14.4739 725.447 -10.4886 715.583 -6.61001 705.228V705.236C-5.93522 702.501 -5.41717 699.439 -5.07447 696.181L3.74301 695.422L3.51454 735.579C0.533801 733.848 -2.23442 732.06 -5.05608 730.754C-6.82013 729.937 -8.58143 730.051 -10.3454 729.398C-12.1094 728.745 -12.4256 733.081 -12.7975 736.821V736.829C-13.273 742.487 -13.3846 748.375 -13.1322 754.172C-13.6689 754.67 -14.187 755.323 -14.6837 756.124C-16.2351 759.161 -17.6644 756.124 -19.1627 755.634C-21.6653 753.96 -24.221 757.675 -25.3872 764.681C-25.8468 772.659 -25.6157 780.865 -24.7178 788.476C-28.6363 787.52 -32.56 790.125 -36.0006 795.955C-36.6541 807.338 -37.2174 816.654 -37.7646 825.979C-37.8948 828.412 -37.9294 830.886 -37.8709 833.352C-37.8709 836.765 -38.1711 837.851 -39.3161 837.688H-45.8568H-45.8594C-46.2818 837.761 -46.6989 837.288 -47.0044 836.382C-47.4614 831.466 -47.828 826.469 -48.099 821.422C-48.3806 815.731 -48.5055 809.934 -48.7153 804.185V804.193C-48.718 803.581 -48.8003 802.993 -48.9438 802.568C-50.8885 800.013 -52.8995 797.988 -54.9557 796.493C-57.283 795.301 -59.6979 795.897 -62.0091 795.407V795.416C-62.4022 795.203 -62.7689 794.656 -63.0664 793.84C-61.9293 786.009 -61.1722 777.697 -60.8268 769.18C-61.9373 762.68 -64.1238 764.142 -66.1162 763.758C-68.5151 763.105 -70.93 763.268 -73.3449 762.786C-73.8391 762.786 -73.786 758.075 -73.0102 756.825L-72.3221 742.25C-77.1359 739 -81.9149 733.145 -86.9388 738.779C-86.4978 740.894 -81.1022 753.306 -77.9119 750.652C-78.3529 754.718 -78.5999 757.642 -78.9692 760.459C-80.2577 770.698 -78.7753 777.582 -75.2313 777.369C-73.3265 777.369 -71.4403 776.716 -69.5355 776.283C-68.7598 776.283 -67.9841 775.851 -66.9957 775.524L-67.6121 806.635L-54.3712 808.423L-55.5534 837.794H-55.5561C-58.2234 837.345 -60.896 837.345 -63.5609 837.794C-65.1283 837.166 -66.7063 836.839 -68.287 836.815L-73.7012 835.786C-77.37 835.19 -81.0361 834.594 -84.7209 834.104C-86.3972 834.104 -88.2462 835.075 -88.7244 827.759L-88.7217 827.767C-89.5081 824.493 -90.1032 820.827 -90.4858 816.932C-90.5735 809.885 -91.049 763.603 -90.9959 747.452C-90.9959 732.33 -90.7674 717.215 -90.6797 702.094C-90.5735 685.836 -90.5203 669.196 -90.4513 652.774V624.759C-90.4513 622.538 -90.6107 620.317 -90.7674 616.193C-89.4975 620.586 -88.5996 623.942 -87.6113 627.029C-85.1964 634.778 -82.7284 642.364 -80.3111 650.113C-78.6534 655.535 -77.1551 660.948 -75.391 666.044L-75.3937 666.052C-73.813 669.963 -72.1579 673.58 -70.439 676.887C-69.921 677.785 -69.5119 679.174 -69.2755 680.847C-71.3556 680.357 -73.4543 679.329 -75.5345 679.435C-79.0678 679.508 -82.6014 680.162 -86.1134 681.386C-88.353 682.252 -87.2239 688.645 -86.9078 691.52C-86.2037 697.97 -84.0173 694.663 -82.5004 695.798L-82.4977 695.807C-81.4617 696.305 -80.4096 696.525 -79.3602 696.452L-79.3593 696.452Z" fill="black" fill-opacity="0.05"/>
<path d="M-30.8558 837.635C-31.3181 829.747 -31.6421 821.786 -31.8281 813.792C-31.4403 810.935 -30.7071 808.665 -29.7825 807.448C-29.121 806.982 -28.4329 806.982 -27.7715 807.448C-25.8667 807.448 -23.9618 808.044 -22.0757 807.448C-21.446 807.505 -20.8403 806.697 -20.4232 805.235C-20.0088 803.781 -19.8255 801.83 -19.9264 799.919C-19.9264 790.815 -19.8201 781.767 -19.7511 772.818C-19.4854 772.442 -11.3933 778.836 -10.195 771.626H-10.1923C-9.39534 766.481 -8.85608 761.002 -8.58772 755.368L-8.46551 740.466C-4.53372 750.167 -0.776994 748.868 3.41786 743.504C3.25846 750.551 3.13625 756.348 2.99545 762.146C2.82012 769.045 2.62618 775.929 2.41365 782.796L2.41631 782.788C2.32067 790.022 2.38442 797.265 2.61024 804.467C2.61024 804.467 2.61024 832.377 3.17345 833.569L2.64478 843C-5.25594 836.059 -28.8475 835.463 -30.8558 837.635Z" fill="black" fill-opacity="0.05"/>
<path d="M6.17736 437.311C5.68323 449.502 5.03234 459.693 4.94203 469.827C4.81982 481.911 5.32989 494.102 5.3113 506.245C5.3113 521.31 4.95797 536.375 4.80123 551.497C4.80123 557.841 4.67902 564.178 4.69496 570.522C4.69496 579.953 4.83576 589.384 4.96062 598.815V598.807C5.07486 601.502 5.25286 604.164 5.48929 606.777C4.89952 605.666 4.37353 604.262 3.93786 602.604C1.38218 585.212 -3.75066 575.503 -8.28012 564.34C-10.5887 558.543 -12.6184 551.659 -14.8739 545.698C-15.8701 543.175 -16.9886 541.142 -18.1894 539.68C-18.7977 539.403 -19.2972 538.047 -19.4646 536.226C-19.6319 534.406 -19.4353 532.454 -18.9651 531.229C-17.0072 523.587 -15.1555 515.674 -13.2162 507.982C-10.9952 499.147 -8.84333 490.1 -6.46298 481.64C-4.08263 473.188 -1.17365 464.517 1.36632 455.73C2.98686 450.21 4.41615 444.086 6.17747 437.309L6.17736 437.311Z" fill="black" fill-opacity="0.05"/>
<path d="M-14.9824 297.968C-14.9266 296.221 -14.6397 294.612 -14.188 293.526C-12.5807 292.571 -11.194 289.452 -10.4156 285.018C-9.39806 280.478 -8.21585 276.314 -6.8902 272.607C-4.06888 264.368 -0.947286 257.003 1.66137 248.216C3.60605 240.745 5.37533 232.849 6.95071 224.593L6.31578 367.448C6.47518 356.931 3.10652 355.257 1.308 349.182C-0.1213 344.356 -1.67273 339.857 -3.17105 335.252C-4.66938 330.646 -6.57421 325.118 -8.24787 319.917C-9.33977 316.561 -10.4157 313.14 -11.4039 309.514C-11.6324 308.698 -13.9596 300.9 -14.9824 297.968Z" fill="black" fill-opacity="0.05"/>
<path d="M-16.9051 26.8362C-17.3806 27.1629 -21.3842 24.1252 -21.6312 24.7214C-21.8783 25.3176 -24.7342 25.2603 -24.4181 13.8858C-24.4181 9.98273 -24.806 8.13737 -23.6769 8.03118H-23.6743C-22.8294 8.17816 -21.982 8.17816 -21.1345 8.03118C-17.9598 6.67571 2.10585 7.10847 3.41028 7.49226C4.71471 7.86788 6.3379 8.46395 7.94253 9.01104V15.5108C7.46699 15.5108 9.19378 83.2509 5.91549 88.8927C5.91549 87.4311 0.325901 84.8264 -2.79589 85.0958C-2.65509 79.6738 -2.58336 75.6156 -2.42662 71.3289C-2.14502 63.8494 -2.42663 57.7253 -4.366 54.4754C-6.94032 53.0138 -10.2717 51.1685 -13.5711 49.0535C-14.0467 43.158 -14.3947 37.1646 -14.6125 31.1222" fill="black" fill-opacity="0.05"/>
<path d="M-20.0953 674.462C-16.0757 666.444 -12.232 659.993 -8.88179 651.754C-4.36817 640.919 1.14968 632.517 3.72385 615.067H3.72651C3.84075 614.005 3.9231 612.919 3.97358 611.809L5.98463 613.654C5.68443 615.173 5.38423 616.471 5.15572 617.884C3.88584 625.69 4.29234 634.141 4.15149 642.487C3.93896 654.735 4.29229 667.04 4.37996 679.338H4.3773C4.34542 680.53 4.28167 681.706 4.18337 682.866C3.90974 682.874 3.63876 682.686 3.39167 682.318C1.22385 674.733 -1.66922 676.137 -4.45328 676.3C-7.52168 676.3 -10.5715 676.954 -13.6401 676.733C-15.6697 676.627 -17.6963 675.385 -20.0953 674.462Z" fill="black" fill-opacity="0.05"/>
<path d="M-5.77899 164.227C-1.47525 164.162 2.75967 160.912 6.56346 154.747L7.00446 203.519C3.58275 195.362 0.325687 186.568 -2.74544 177.177C-3.98873 173.42 -5.01387 169.045 -5.77899 164.227Z" fill="black" fill-opacity="0.05"/>
<path d="M454.65 648.284C453.734 650.178 452.711 651.697 451.848 653.706C450.418 657.119 449.045 660.801 447.669 664.541C447.159 665.897 442.379 674.462 440.44 679.827C439.577 680.154 437.9 680.799 436.208 681.289C435.485 681.289 434.779 681.289 434.056 681.615L434.053 681.607C433.851 681.501 433.642 681.501 433.437 681.607C430.106 687.029 426.562 681.338 423.212 683.338C419.527 685.502 415.858 682.579 412.88 683.877L412.878 683.885C411.996 680.366 411.042 677.018 410.022 673.858C408.258 668.869 406.212 664.264 404.273 659.601L404.275 659.609C403.141 657.396 402.057 654.955 401.029 652.293C398.173 643.246 395.493 633.594 392.599 624.596C391.223 620.317 390.166 613.76 387.767 614.952L387.908 606.714C389.531 602.541 391.576 597.936 393.356 592.514C396.002 584.438 398.399 575.603 401.061 567.584H401.066C403.037 562.742 405.091 558.218 407.219 554.038C408.457 550.984 409.793 548.314 411.204 546.068C412.543 544.386 410.287 537.233 409.052 538.099C408.241 539.373 407.545 541.234 407.025 543.521C403.356 554.356 398.401 559.019 394.313 567.422C390.788 574.738 386.624 578.257 383.24 587.207L382.746 457.138C385.777 461.278 388.724 465.998 391.561 471.281C394.239 477.356 396.747 484.125 399.056 491.499C401.364 498.325 403.482 505.755 405.668 513.178C407.238 518.33 413.691 538.759 413.973 540.279C414.201 540.279 417.657 518.6 415.737 513.995C412.211 505.429 408.508 497.738 404.999 488.796C402.565 482.729 400.344 475.788 397.945 469.337C397.276 467.492 383.592 429.556 382.994 429.123C383.169 423.432 383.435 418.288 383.454 413.625C383.454 406.252 383.331 398.886 383.294 391.513C383.26 384.14 392.393 358.998 393.363 356.556C395.831 349.942 398.352 343.385 400.911 337.155C401.421 335.906 412.337 316.024 413.482 313.15L413.479 313.141C414.773 310.471 416.006 307.515 417.164 304.306C419.244 297.26 418.928 292.597 416.335 287.665V287.673C414.887 284.677 413.503 281.402 412.193 277.859C411.752 276.773 404.205 251.844 404.048 252.17L402.584 248.324C400.379 242.633 398.193 236.893 395.972 231.308C394.508 227.625 392.922 224.367 391.511 220.472H391.508C391.044 219.059 390.844 217.018 390.98 215.05C391.625 211.49 392.46 208.289 393.448 205.57C395.974 200.018 398.405 194.065 400.73 187.737C403.022 180.42 410.992 155.597 411.943 157.117C413.197 159.444 430.282 162.915 435.853 162.915C439.274 162.915 442.694 161.829 446.096 162.318C448.336 162.645 455.055 168.067 456.112 167.414C458.758 165.732 459.268 173.317 460.557 176.845C463.888 186.055 466.922 196.352 470.113 206.053C471.449 210.25 472.862 214.219 474.345 217.926C475.033 219.306 475.782 220.376 476.566 221.118C474.68 227.896 472.828 235.318 470.695 241.875C468.227 249.518 465.405 256.287 462.918 263.554C461.279 268.323 459.781 273.581 458.211 278.619C457.77 280.032 457.313 281.33 456.835 282.58H456.837C455.498 285.805 454.223 289.267 453.009 292.925C452.584 295.391 452.231 297.971 451.952 300.625C451.423 303.336 454.648 318.614 456.237 323.391C457.823 328.16 462.02 342.58 462.918 345.07C464.488 349.782 466.074 354.395 467.607 359.27C469.14 364.145 470.341 368.481 471.68 373.2L471.683 373.192C473.784 379.863 476.106 385.841 478.611 391.025C478.611 398.505 478.718 405.764 478.824 412.974C478.872 416.297 478.295 419.417 477.342 420.993C475.54 425.99 473.872 431.428 472.352 437.25C471.558 439.904 470.713 442.402 469.919 445.056C467.485 453.401 464.964 461.314 462.69 470.205C460.769 477.579 459.165 485.703 457.401 493.346C456.45 497.412 455.337 501.094 454.316 504.998C453.294 508.901 452.024 513.506 450.985 518.005L450.982 517.997C450.233 520.692 449.415 523.198 448.53 525.477C446.766 530.899 446.556 535.504 447.842 540.926H447.845C448.788 544.224 449.84 547.221 450.982 549.867C451.402 551.279 451.798 552.757 452.165 554.309C452.552 555.689 452.972 556.995 453.416 558.212C455.321 563.307 457.313 568.133 459.146 573.44C459.712 575.702 460.172 578.201 460.504 580.863C460.605 581.883 460.793 582.798 461.051 583.517C464.576 587.91 466.8 597.659 470.078 603.138C471.576 606.551 472.913 610.609 474.044 615.166C473.904 615.713 455.107 647.303 454.65 648.284ZM403.374 426.852C406.477 436.716 409.511 446.793 412.667 456.55C415.207 464.405 417.956 471.779 420.512 479.586C422.045 484.248 429.064 505.65 430.28 508.688C431.056 511.35 432.193 512.746 433.351 512.46C434.512 512.166 435.562 510.231 436.189 507.218C438.71 498.71 441.603 491.287 444.265 483.154C447.28 473.992 450.295 464.839 453.17 455.302C454.581 450.591 455.673 444.948 456.98 439.91C457.827 436.603 458.9 433.786 459.66 430.316C460.417 426.845 460.805 422.624 461.546 419.096C462.992 412.05 461.793 395.032 459.782 393.627C459.554 393.627 455.144 374.12 454.352 371.19C453.558 368.266 451.162 362.191 450.949 361.432C449.714 357.039 448.569 352.433 447.424 347.828C446.048 342.406 444.743 336.666 443.317 331.301C442.275 327.398 441.058 323.928 439.932 320.466H439.927C439.512 318.825 439.063 317.273 438.585 315.803C437.626 312.586 436.46 310.006 435.166 308.218C433.12 306.593 431.763 311.688 430.405 315.86C429.048 320.033 427.215 325.185 425.538 329.57C423.527 334.992 421.5 340.406 419.367 344.905C417.234 349.404 406.283 381.975 405.385 382.841C405.613 386.148 400.095 413.297 400.289 413.625C401.482 417.643 402.519 422.084 403.374 426.852ZM406.283 602.662C406.283 601.96 406.371 602.662 406.283 603.585C406.108 609.006 408.839 615.343 408.98 616.102C410.744 624.447 412.505 632.899 414.269 641.032C415.467 646.454 416.878 651.328 418.201 656.481L418.203 656.473C418.4 657.812 418.695 659.004 419.067 659.935C419.983 660.8 424.744 651.32 425.996 649.475C427.247 647.629 428.87 645.792 430.246 643.571C434.654 636.361 439.064 628.996 443.437 621.892C443.665 622.268 446.962 616.47 446.875 614.037C446.604 608.615 445.878 603.495 444.776 599.184C441.144 586.397 437.3 574.091 433.384 562.113V562.122C432.505 560.317 431.394 559.933 430.406 561.093C427.779 564.996 425.345 570.034 422.771 574.313C422.067 575.448 415.276 583.58 415.082 584.07C414.482 585.483 411.185 591.28 410.869 591.762C410.252 592.734 409.705 594.04 409.105 595.118V595.127C408.711 595.625 408.332 596.245 407.976 596.964C407.572 598.27 407.131 600.059 406.355 602.655L406.283 602.662ZM453.468 238.794C453.255 235.274 449.483 222.267 448.742 219.172C448.001 216.085 447.225 212.346 446.484 208.875C445.02 202.098 443.609 195.214 442.039 188.658C441.245 185.351 440.735 181.015 438.617 183.236L438.62 183.244C436.202 185.057 433.745 186.347 431.269 187.09C429.63 188.012 427.99 189.254 426.386 190.609L426.383 190.617C424.077 193.091 421.721 195.116 419.333 196.684C417.481 197.77 415.717 200.097 415.717 204.923C415.717 209.749 414.219 216.306 416.37 221.18C418.015 226.798 419.564 232.677 421.006 238.793C422.877 245.244 424.71 251.744 426.577 258.194C427.204 259.533 427.751 261.183 428.2 263.069C428.841 268.523 430.61 271.928 432.486 271.308C433.479 271.741 434.489 270.981 435.307 269.193C435.859 265.813 435.905 261.852 435.429 258.357C434.446 253.115 433.216 248.355 431.779 244.215C429.627 237.715 427.265 231.803 424.972 225.786C424.25 223.663 423.437 221.842 422.558 220.364C421.569 218.902 422.733 212.018 424.322 210.5C427.284 207.789 430.246 205.078 433.139 202.367C434.409 201.118 435.626 199.28 437.124 197.378C438.112 201.06 439.558 206.049 440.88 211.308C442.413 217.375 442.645 226.806 445.607 229.248L445.604 229.256C445.678 229.974 445.721 230.726 445.726 231.477C443.311 236.466 440.825 241.994 438.216 246.869C437.485 247.955 436.933 249.914 436.683 252.291C436.433 254.659 436.508 257.247 436.893 259.444C440.851 258.79 444.693 255.059 448.053 248.6C449.889 245.619 451.544 242.476 453.468 238.794Z" fill="black" fill-opacity="0.05"/>
<path d="M387.945 142.105C386.994 149.2 389.056 151.209 390.025 153.593C392.166 158.24 394.738 160.673 397.36 160.526C399.706 160.902 402.049 161.016 404.148 161.228C402.033 165.727 399.828 170.765 397.501 175.322C394.257 181.666 390.889 187.407 387.68 193.857C386.646 196.666 385.727 199.851 384.946 203.338C384.561 185.292 384.619 167.172 385.124 149.143C385.124 146.595 384.911 144.048 384.895 141.5C384.895 134.56 384.736 127.57 384.755 120.58C384.755 116.571 385.02 112.504 385.02 108.495C385.02 95.3815 384.898 82.2111 385.02 69.0962C385.143 55.9825 385.602 44.3881 385.849 32.0258C386.043 22.0558 386.115 12.0857 386.256 1.07808C388.354 0.318694 407.203 5.3077 411.98 6.98165C413.744 7.63489 415.718 6.60604 417.588 6.98165L417.583 6.98982C419.471 7.16946 421.35 7.76553 423.209 8.77805C423.696 10.1825 423.964 12.1504 423.948 14.2C424.07 22.1124 424.142 30.0246 424.089 37.8796C424.089 39.774 419.416 38.8512 418.077 37.8796V37.8877C416.015 37.0875 413.924 37.1937 411.871 38.2062C411.265 39.1207 410.853 40.9172 410.779 42.9747C410.779 47.4738 411.254 51.9158 411.342 56.4151C411.257 59.0199 411.055 61.5757 410.742 64.0089C407.216 55.1249 403.46 61.0858 399.775 61.0285C398.683 61.0285 398.487 62.5962 398.418 65.691C398.205 74.7383 397.817 83.7366 397.448 94.4167C394.767 92.5713 392.352 90.6768 389.9 89.4847V89.4765C388.907 89.746 387.934 90.538 387.028 91.8037C387.682 93.5511 388.452 94.8494 389.284 95.6007C392.562 93.543 394.892 99.5038 397.429 103.946C399.969 108.388 401.73 104.705 402.225 95.9274H402.227C402.838 88.9868 402.238 81.5562 400.639 76.3058C400.309 73.9134 400.171 71.3168 400.235 68.7201C401.43 67.7648 402.671 67.4545 403.901 67.7974C406.122 69.6918 408.221 73.2194 410.407 75.6037C411.799 77.2286 413.441 78.6412 414.445 74.3543C415.742 69.9042 416.034 63.478 415.186 58.097C414.49 54.6184 413.874 50.9932 413.335 47.2614C416.419 50.2419 419.612 47.2614 422.75 51.434C423.932 53.0589 426.275 58.3175 427.845 52.0301C428.462 49.5886 428.409 16.3707 427.845 15.6684L427.58 13.7168L427.582 13.7086C428.31 12.0756 429.128 10.8426 429.997 10.0831C433.4 9.16043 436.804 8.89098 440.207 8.35206C441.511 8.35206 442.8 7.75598 444.104 7.42936L442.34 19.5141C442.5 19.5141 442.181 31.4929 442.234 37.0209V37.0127C446.394 35.2653 450.61 35.2653 454.771 37.0127C451.984 41.618 454.771 55.9239 455.177 61.125C455.265 62.0966 464.752 69.0374 465.862 66.5469C465.862 70.0662 464.098 78.3622 464.205 81.8816C464.311 85.4009 468.349 104.156 471.258 101.013C472.421 99.7638 479.882 99.0044 480.445 98.5227L480.692 100.205C480.251 100.907 479.616 126.71 479.828 139.228H479.826C479.321 141.35 478.513 142.6 477.658 142.584C476.76 142.045 440.861 62.2115 441.264 56.2498V56.258C440.366 58.3565 439.538 60.7407 438.796 63.3537C437.173 70.4494 391.224 143.456 387.945 142.102L387.945 142.105Z" fill="black" fill-opacity="0.05"/>
<path d="M393.658 698.452L391.982 705.875C395.507 713.297 399.035 721.046 402.561 727.554L402.564 727.562C406.312 734.601 409.723 743.207 412.701 753.135C413.82 756.255 415.1 758.761 416.492 760.558C421.218 767.768 425.025 779.526 430.174 785.161V785.169C431.608 787.145 433.29 786.288 434.44 782.997C438.547 774.652 442.763 766.74 446.783 757.961C449.551 751.837 452.072 744.358 454.612 737.58C458.544 727.447 462.529 717.583 466.408 707.228V707.236C467.082 704.501 467.6 701.439 467.943 698.181L476.761 697.422L476.532 737.579C473.551 735.848 470.783 734.06 467.961 732.754C466.197 731.937 464.436 732.051 462.672 731.398C460.908 730.745 460.592 735.081 460.22 738.821V738.829C459.745 744.487 459.633 750.375 459.885 756.172C459.349 756.67 458.831 757.324 458.334 758.124C456.782 761.161 455.353 758.124 453.855 757.634C451.352 755.96 448.797 759.675 447.63 766.681C447.171 774.659 447.402 782.865 448.3 790.476C444.381 789.52 440.458 792.125 437.017 797.955C436.363 809.338 435.8 818.654 435.253 827.979C435.123 830.412 435.088 832.886 435.147 835.352C435.147 838.765 434.846 839.851 433.701 839.688H427.161H427.158C426.736 839.762 426.319 839.288 426.013 838.382C425.556 833.466 425.19 828.469 424.919 823.423C424.637 817.731 424.512 811.934 424.302 806.185V806.193C424.3 805.581 424.217 804.993 424.074 804.569C422.129 802.013 420.118 799.988 418.062 798.494C415.735 797.301 413.32 797.897 411.009 797.408V797.416C410.615 797.203 410.249 796.656 409.951 795.84C411.088 788.009 411.845 779.697 412.191 771.18C411.08 764.68 408.894 766.142 406.901 765.758C404.502 765.105 402.088 765.268 399.673 764.786C399.179 764.786 399.232 760.075 400.007 758.825L400.695 744.25C395.882 741 391.103 735.145 386.079 740.779C386.52 742.894 391.915 755.306 395.106 752.652C394.665 756.718 394.418 759.642 394.048 762.459C392.76 772.698 394.242 779.582 397.786 779.369C399.691 779.369 401.577 778.716 403.482 778.283C404.258 778.283 405.034 777.851 406.022 777.524L405.405 808.635L418.646 810.423L417.464 839.795H417.461C414.794 839.345 412.122 839.345 409.457 839.795C407.889 839.166 406.311 838.839 404.731 838.815L399.316 837.786C395.648 837.19 391.981 836.594 388.297 836.104C386.62 836.104 384.771 837.075 384.293 829.759L384.296 829.767C383.509 826.493 382.914 822.827 382.532 818.932C382.444 811.885 381.969 765.603 382.022 749.452C382.022 734.33 382.25 719.215 382.338 704.094C382.444 687.837 382.497 671.196 382.566 654.774V626.759C382.566 624.538 382.407 622.317 382.25 618.193C383.52 622.586 384.418 625.942 385.406 629.029C387.821 636.778 390.289 644.364 392.706 652.113C394.364 657.535 395.863 662.948 397.627 668.044L397.624 668.052C399.205 671.963 400.86 675.58 402.579 678.887C403.097 679.785 403.506 681.174 403.742 682.847C401.662 682.358 399.563 681.329 397.483 681.435C393.95 681.508 390.416 682.162 386.904 683.386C384.665 684.252 385.794 690.646 386.11 693.52C386.814 699.97 389 696.663 390.517 697.799L390.52 697.807C391.556 698.305 392.608 698.525 393.657 698.452L393.658 698.452Z" fill="black" fill-opacity="0.05"/>
<path d="M401.609 321.917C398.083 329.886 394.186 336.492 391.346 346.251H391.349C389.587 351.558 387.542 355.886 385.3 359.046C385.193 346.528 384.983 334.493 384.999 322.465C384.999 312.764 385.316 303.064 385.547 293.363C385.547 291.517 386.147 222.911 384.965 219.009C387.627 215.865 388.015 217 389.231 225.19V225.182C390.161 230.04 391.248 234.605 392.475 238.785C393.726 244.207 408.697 291.134 411.236 292.115" fill="black" fill-opacity="0.05"/>
<path d="M489.633 232.806C472.83 164.172 431.154 42.7371 402.263 -39.9879H355.889C384.79 42.7284 426.451 163.298 443.249 232.806C470.134 343.683 469.462 406.163 509.775 530.218C534.639 608.562 554.13 681.6 581.01 737.921V610.327C574.291 585.679 564.879 559.278 556.146 531.997C515.829 407.05 516.49 344.547 489.635 232.804L489.633 232.806Z" fill="black" fill-opacity="0.02"/>
<path d="M476.179 543.435C454.674 475.669 430.482 357.766 411.002 259.205C398.893 197.605 357.909 55.9368 329.013 -39.9879H284.669C311.554 62.9714 349.19 205.533 370.695 269.768C401.607 363.05 427.81 481.836 452.007 547.852C466.794 588.343 487.633 642.893 503.095 686.011C480.902 673.679 469.497 644.652 447.303 601.52C425.126 558.41 430.501 554.869 402.293 473.934C373.355 392.978 331.027 276.829 293.397 153.614C273.23 88.4943 263.823 14.576 259.126 -39.9809H208.053C210.068 -8.29994 214.1 28.6574 221.49 69.1365C242.323 182.654 261.807 215.213 294.741 297.931C327.667 380.647 359.251 430.81 406.959 553.125C439.886 637.601 482.225 678.072 505.735 695.669C513.814 718.565 520.533 740.561 522.547 751.126C528.605 779.287 531.282 813.606 532.626 840H548.756C549.428 813.599 547.412 781.052 539.35 750.225C531.282 718.565 497.011 611.207 476.178 543.447L476.179 543.435Z" fill="black" fill-opacity="0.02"/>
<path d="M316.914 430.801C285.326 370.081 251.726 337.52 217.455 222.242C195.95 151.844 183.856 39.2103 177.81 -39.9878H138.836C141.524 -24.1512 144.883 -5.66864 149.581 12.8074C167.054 85.8457 144.206 56.8046 124.717 7.5286C119.347 -6.54845 114.639 -22.3924 111.28 -39.9885H62.8944C70.285 4.88866 82.3837 77.9269 92.4624 127.211C107.921 202.889 126.733 310.243 112.624 378.878C98.509 446.638 56.8477 627.036 62.8944 739.652C65.587 787.183 67.6026 813.577 68.2746 839.978H79.0246C78.3527 822.382 77.6809 804.779 79.6965 786.31C83.7277 744.059 109.936 711.519 136.817 670.141C159.666 635.821 167.728 605.914 179.827 567.181C191.921 528.469 199.317 511.739 239.634 539.034C279.951 567.181 343.129 634.941 378.074 682.471C413.017 729.981 415.027 758.142 415.027 758.142C415.027 745.825 405.621 717.651 402.267 708.865C399.579 700.067 392.173 686.862 364.627 642.865C337.085 598.861 244.34 483.583 217.453 445.742C190.573 407.91 169.74 413.183 163.021 396.465C155.631 380.629 161.678 337.503 154.287 277.67C146.896 217.823 122.703 98.1472 111.276 36.5487C108.589 23.3515 106.573 10.1476 104.558 -3.05035C105.901 0.468866 106.573 3.10828 107.917 4.86806C117.323 29.5092 157.646 128.063 171.756 245.989C185.193 363.905 237.61 401.744 283.985 459.821C330.345 517.03 340.438 547.815 360.594 580.376C380.745 612.043 434.506 736.131 434.506 736.131C434.506 736.131 435.183 695.639 396.876 612.923C358.573 530.2 349.168 491.488 316.912 430.781L316.914 430.801ZM159.66 442.218C175.791 424.629 191.244 451.917 190.572 466C189.9 480.95 140.171 572.485 140.171 572.485C138.155 575.997 130.093 595.366 119.338 626.153C108.588 656.94 92.4575 697.431 85.7389 686.873C78.3482 676.322 99.8536 591.832 109.932 558.393C120.016 524.947 143.531 459.84 159.662 442.216L159.66 442.218Z" fill="black" fill-opacity="0.02"/>
<path d="M13.8333 311.131C-1.62534 191.455 -23.1253 118.408 -46.6453 30.4105C-52.6975 7.52926 -70.1667 -3.90872 -91 -9.1886V149.206C-71.5107 189.685 -55.3853 245.127 -45.3027 282.964C-25.8133 355.123 -42.6152 647.283 -44.6308 680.719C-46.6464 706.213 -41.2715 795.994 -38.5839 839.993H5.77081C-0.947995 813.592 -15.7345 755.503 -21.7812 701.835C-29.8489 632.328 25.9268 409.678 13.8335 311.134L13.8333 311.131Z" fill="black" fill-opacity="0.02"/>
<path d="M35.3388 699.195C38.0262 630.556 79.6934 374.51 91.1148 293.531C102.537 212.575 38.0268 31.301 31.3081 -5.66165C28.6154 -16.2195 29.9592 -28.5429 32.6466 -39.9808H-27.832C-12.5454 -15.7832 -3.00402 54.8823 5.76664 85.8527C14.5374 116.83 50.1213 246.007 47.428 321.701C44.7405 406.177 -0.285361 647.293 9.12531 732.637C12.4846 763.438 16.516 803.923 19.8753 839.136H41.3806C37.3546 796.019 33.3181 740.583 35.339 699.21L35.3388 699.195Z" fill="black" fill-opacity="0.02"/>
<path d="M310.86 684.214C355.887 702.711 388.813 736.151 388.813 736.151C380.751 713.269 358.563 695.659 337.064 674.55C315.559 652.547 289.335 641.111 267.179 627.913C245.001 614.695 242.985 605.91 224.84 590.947C206.695 575.997 199.313 594.459 199.976 605.017C200.648 615.575 214.763 616.455 225.512 620.854C235.59 625.253 240.971 641.977 238.949 648.135C236.262 656.933 205.351 653.414 177.127 693.913C161.007 717.662 87.0587 830.366 86.3867 839.99H121.36C133.454 804.791 163.699 771.351 197.969 728.211C234.928 681.581 265.839 665.752 310.86 684.214Z" fill="black" fill-opacity="0.02"/>
<path d="M276.593 746.703C236.947 756.388 191.921 804.785 167.057 839.984H218.13C236.947 813.583 267.193 789.827 308.177 780.144C364.625 766.067 403.593 813.583 417.713 839.984H421.744C419.062 822.388 413.681 809.184 401.593 792.474C382.771 766.059 333.041 733.5 276.593 746.703Z" fill="black" fill-opacity="0.02"/>
</g>
<defs>
<linearGradient id="paint0_linear_46_830" x1="195" y1="0" x2="195" y2="844" gradientUnits="userSpaceOnUse">
<stop offset="0.322917" stop-color="#262625"/>
<stop offset="0.963542" stop-color="#5A534A"/>
</linearGradient>
<clipPath id="clip0_46_830">
<rect width="390" height="844" fill="white"/>
</clipPath>
</defs>
</svg>
